<svg id="TWITTER" xmlns="http://www.w3.org/2000/svg" xmlns:xlink="http://www.w3.org/1999/xlink" viewBox="0 0 400 400"><defs><style>.cls-1{fill:url(#New_Gradient_Swatch_3);}.cls-2{fill:#fff;}</style><linearGradient id="New_Gradient_Swatch_3" x1="200.1" y1="8.85" x2="200.1" y2="398.76" gradientUnits="userSpaceOnUse"><stop offset="0" stop-color="#e3fff0"/><stop offset="0.02" stop-color="#cdf8e5"/><stop offset="0.08" stop-color="#9debcd"/><stop offset="0.14" stop-color="#73deb9"/><stop offset="0.2" stop-color="#4fd4a7"/><stop offset="0.26" stop-color="#32cc99"/><stop offset="0.33" stop-color="#1cc58e"/><stop offset="0.41" stop-color="#0cc186"/><stop offset="0.49" stop-color="#03be81"/><stop offset="0.61" stop-color="#00bd80"/><stop offset="0.64" stop-color="#08bd7f"/><stop offset="0.69" stop-color="#1dbe7c"/><stop offset="0.76" stop-color="#3fbe78"/><stop offset="0.83" stop-color="#70c072"/><stop offset="0.91" stop-color="#adc16b"/><stop offset="0.99" stop-color="#f7c362"/><stop offset="1" stop-color="#ffc361"/></linearGradient></defs><title>CIRCLE ICON</title><g id="Twitter_icon_copy_2" data-name="Twitter icon copy 2"><circle class="cls-1" cx="200.1" cy="200.1" r="197.9"/><g id="ICON_copy_4" data-name="ICON copy 4"><path class="cls-2" d="M117.85,269.54V133.21a137.1,137.1,0,0,0,27.7,16V89.32h-64V310.65h64V259.57A214.83,214.83,0,0,0,117.85,269.54Z"/><path class="cls-2" d="M232.12,155.36v-66h-64v67.11C191.32,161.57,213.44,159.73,232.12,155.36Z"/><path class="cls-2" d="M168.13,254.05v56.6h64V251.18C209.3,248.22,186.94,250.34,168.13,254.05Z"/><path class="cls-2" d="M253.45,89.32v59.61c19.79-7.31,32.23-15.72,32.23-15.72V269.54a128.23,128.23,0,0,0-32.23-14v55.12h68.28V89.32Z"/></g></g></svg>