<svg xmlns="http://www.w3.org/2000/svg" viewBox="0 0 400 400"><defs><style>.cls-1{fill:#00bd80;}</style></defs><title>FAVICON</title><g id="ICON_RELIEF" data-name="ICON RELIEF"><g id="ICON_copy_6" data-name="ICON copy 6"><path class="cls-1" d="M71.06,304.42V94.58a210.94,210.94,0,0,0,42.64,24.56V27H15.21V367.71H113.7V289.08C87.57,296.73,71.06,304.42,71.06,304.42Z"/><path class="cls-1" d="M247,128.68V27H148.46v103.3C184.14,138.23,218.2,135.4,247,128.68Z"/><path class="cls-1" d="M148.46,280.57v87.14H247V276.16C211.83,271.61,177.41,274.88,148.46,280.57Z"/><path class="cls-1" d="M279.77,27v91.76c30.47-11.26,49.62-24.2,49.62-24.2V304.42a197.87,197.87,0,0,0-49.62-21.57v84.86h105.1V27Z"/></g></g></svg>