<svg xmlns="http://www.w3.org/2000/svg" viewBox="0 0 952.38 911.51"><defs><style>.cls-1{font-size:151.43px;font-family:SofiaPro-Bold, Sofia Pro;font-weight:700;letter-spacing:0.04em;}.cls-1,.cls-6{fill:#00bd80;}.cls-2{letter-spacing:0.04em;}.cls-3{letter-spacing:0.04em;}.cls-4{letter-spacing:0.03em;}.cls-5{letter-spacing:0.04em;}</style></defs><title>LOGO VERTICAL</title><g id="ICON_VERTICAL" data-name="ICON VERTICAL"><text class="cls-1" transform="translate(37 871.14)">X<tspan class="cls-2" x="104.94" y="0">R</tspan><tspan class="cls-3" x="206.85" y="0">moni</tspan><tspan class="cls-4" x="580.12" y="0">t</tspan><tspan class="cls-3" x="639.78" y="0">o</tspan><tspan class="cls-5" x="733.52" y="0">r</tspan><tspan x="801.36" y="0">s</tspan></text><g id="ICON_copy_8" data-name="ICON copy 8"><path class="cls-6" d="M229.85,565.19V168.33a398.81,398.81,0,0,0,80.63,46.45V40.56H124.22V684.88H310.48V536.18C261.06,550.64,229.85,565.19,229.85,565.19Z"/><path class="cls-6" d="M562.48,232.82V40.56H376.22V235.93C443.71,250.89,508.12,245.54,562.48,232.82Z"/><path class="cls-6" d="M376.22,520.09V684.88H562.48V511.75C496.06,503.13,431,509.32,376.22,520.09Z"/><path class="cls-6" d="M624.57,40.56V214.1c57.61-21.3,93.84-45.77,93.84-45.77V565.19a374,374,0,0,0-93.84-40.79V684.88H823.34V40.56Z"/></g></g></svg>