<svg xmlns="http://www.w3.org/2000/svg" xmlns:xlink="http://www.w3.org/1999/xlink" viewBox="0 0 400 400"><defs><style>.cls-1{fill:url(#New_Gradient_Swatch_3);}.cls-2{fill:#fff;}</style><linearGradient id="New_Gradient_Swatch_3" x1="195.1" y1="3.39" x2="206.21" y2="401.13" gradientUnits="userSpaceOnUse"><stop offset="0" stop-color="#e3fff0"/><stop offset="0.02" stop-color="#cdf8e5"/><stop offset="0.08" stop-color="#9debcd"/><stop offset="0.14" stop-color="#73deb9"/><stop offset="0.2" stop-color="#4fd4a7"/><stop offset="0.26" stop-color="#32cc99"/><stop offset="0.33" stop-color="#1cc58e"/><stop offset="0.41" stop-color="#0cc186"/><stop offset="0.49" stop-color="#03be81"/><stop offset="0.61" stop-color="#00bd80"/><stop offset="0.64" stop-color="#08bd7f"/><stop offset="0.69" stop-color="#1dbe7c"/><stop offset="0.76" stop-color="#3fbe78"/><stop offset="0.83" stop-color="#70c072"/><stop offset="0.91" stop-color="#adc16b"/><stop offset="0.99" stop-color="#f7c362"/><stop offset="1" stop-color="#ffc361"/></linearGradient></defs><title>SQUARE ICON</title><g id="ICON"><g id="App_icon_copy_2" data-name="App icon copy 2"><rect class="cls-1" x="2.69" y="2.2" width="395.8" height="395.8" rx="12"/><g id="ICON_copy_5" data-name="ICON copy 5"><path class="cls-2" d="M108,272.55V120.42a153.08,153.08,0,0,0,30.91,17.8V71.44H67.49v247h71.4v-57A239.75,239.75,0,0,0,108,272.55Z"/><path class="cls-2" d="M235.49,145.14V71.44h-71.4v74.89C190,152.06,214.65,150,235.49,145.14Z"/><path class="cls-2" d="M164.09,255.26v63.17h71.4V252.06C210,248.76,185.08,251.13,164.09,255.26Z"/><path class="cls-2" d="M259.29,71.44V138c22.09-8.16,36-17.54,36-17.54V272.55a143.19,143.19,0,0,0-36-15.64v61.52h76.2v-247Z"/></g></g></g></svg>