<svg xmlns="http://www.w3.org/2000/svg" viewBox="0 0 1920 530.54"><defs><style>.cls-1{font-size:238.71px;font-family:SofiaPro-Bold, Sofia Pro;font-weight:700;letter-spacing:0.04em;}.cls-1,.cls-6{fill:#fff;}.cls-2{letter-spacing:0.04em;}.cls-3{letter-spacing:0.03em;}.cls-4{letter-spacing:0.04em;}.cls-5{letter-spacing:0.04em;}</style></defs><title>WHITE_LOGO HORIZONTAL</title><g id="LOGO_HORIZONTAL_WHITE" data-name="LOGO HORIZONTAL WHITE"><g id="Logo_Horizontal_copy_2" data-name="Logo Horizontal copy 2"><text class="cls-1" transform="translate(487.41 354.37)">X<tspan class="cls-2" x="165.43" y="0">R</tspan><tspan x="326.08" y="0">moni</tspan><tspan class="cls-3" x="914.49" y="0">t</tspan><tspan x="1008.55" y="0">o</tspan><tspan class="cls-4" x="1156.31" y="0">r</tspan><tspan class="cls-5" x="1263.25" y="0">s</tspan></text><g id="ICON_copy_9" data-name="ICON copy 9"><path class="cls-6" d="M123.84,349.4V174.18a175.64,175.64,0,0,0,35.6,20.51V117.78H77.2V402.24h82.24V336.59A277.13,277.13,0,0,0,123.84,349.4Z"/><path class="cls-6" d="M270.69,202.66V117.78H188.46V204C218.26,210.63,246.69,208.27,270.69,202.66Z"/><path class="cls-6" d="M188.46,329.49v72.75h82.23V325.8C241.37,322,212.63,324.73,188.46,329.49Z"/><path class="cls-6" d="M298.11,117.78v76.61c25.43-9.4,41.42-20.21,41.42-20.21V349.4a165.28,165.28,0,0,0-41.42-18v70.85h87.75V117.78Z"/></g></g></g></svg>